<?xml version="1.0" encoding="utf-8"?>
<!-- Generator: Adobe Illustrator 27.0.0, SVG Export Plug-In . SVG Version: 6.00 Build 0)  -->
<svg version="1.1" id="Layer_1" xmlns="http://www.w3.org/2000/svg" xmlns:xlink="http://www.w3.org/1999/xlink" x="0px" y="0px"
	 viewBox="0 0 544.2 544.2" style="enable-background:new 0 0 544.2 544.2;" xml:space="preserve">
<style type="text/css">
	.st0{fill:#4A00EB;}
	.st1{fill:#FFFFFF;}
</style>
<circle class="st0" cx="272.1" cy="273.4" r="248.5"/>
<path id="XMLID_103_" class="st1" d="M235.9,274.5c0,3.4-2.7,6.1-6.1,6.1h-53.3c-3.4,0-6.1-2.7-6.1-6.1c0-3.4,2.7-6.1,6.1-6.1h53.3
	C233.2,268.4,235.9,271.1,235.9,274.5z M217.2,294h-28c-3.4,0-6.1,2.7-6.1,6.1c0,3.4,2.7,6.1,6.1,6.1h28c3.4,0,6.1-2.7,6.1-6.1
	C223.3,296.7,220.5,294,217.2,294z M414,373.8c2.5,2.3,2.6,6.1,0.3,8.6c-10.2,11-26.8,10-47.9,8.7c-25.7-1.6-57.6-3.5-91.5,14.8
	c-1.8,1-4,1-5.8,0c-13.9-7.5-27.5-11.6-40.4-13.7v27.9c0,2.2-1.1,4.2-3,5.3c-1.9,1.1-4.2,1.1-6,0.1l-16.5-9.2l-16.5,9.2
	c-0.9,0.5-1.9,0.8-3,0.8c-1.1,0-2.1-0.3-3.1-0.8c-1.9-1.1-3-3.1-3-5.3v-29c-21,1.3-37.6,2.3-47.8-8.7c-2.3-2.5-2.1-6.3,0.3-8.6
	c2.5-2.3,6.3-2.1,8.6,0.3c6.2,6.7,20.3,5.9,38.2,4.8c25.1-1.5,59.3-3.6,95.1,14.7c35.9-18.4,70-16.3,95.1-14.7
	c17.9,1.1,32,2,38.2-4.8C407.7,371.6,411.6,371.5,414,373.8z M216.6,390.7c-9.4-0.7-18.4-0.6-26.8-0.3v19.3l10.5-5.8
	c1.8-1,4.1-1,5.9,0l10.5,5.8L216.6,390.7L216.6,390.7z M308.2,248.9c0,3.4,2.7,6.1,6.1,6.1h53.3c3.4,0,6.1-2.7,6.1-6.1
	s-2.7-6.1-6.1-6.1h-53.3C311,242.8,308.2,245.5,308.2,248.9z M416,167.3v185.2c0,1.5-0.6,3-1.6,4.1c-10.2,11-26.8,10-47.9,8.7
	c-25.7-1.6-57.6-3.5-91.5,14.8c-0.1,0-0.1,0.1-0.2,0.1c-0.9,0.4-1.8,0.6-2.7,0.6c-0.4,0-1.7-0.1-3-0.8c-34-18-65.7-16.3-91.4-14.8
	c-21.1,1.3-37.7,2.3-47.9-8.7c-1-1.1-1.6-2.6-1.6-4.1V167.3c0-2.1,1.1-4.1,3-5.2c1.8-1.1,4.1-1.1,6-0.1
	c33.9,18.3,65.8,16.4,91.5,14.8c18.2-1.1,33.1-2,43.4,4.9c10.3-6.9,25.2-6,43.4-4.9c25.7,1.6,57.6,3.5,91.5-14.8c1.9-1,4.2-1,6,0.1
	C414.8,163.2,416,165.2,416,167.3z M266,192.3c-6.9-5.2-20.1-4.3-36.6-3.3c-23.7,1.4-55.4,3.4-89-11.8v172.7
	c6.9,5.1,20.1,4.3,36.6,3.3c7.5-0.5,15.8-1,24.7-1c19.3,0,41.4,2.4,64.4,12.8V192.3z M403.8,177.1c-33.6,15.2-65.3,13.2-89,11.8
	c-16.4-1-29.7-1.8-36.6,3.3v172.7c33.6-15.2,65.4-13.2,89-11.8c16.4,1,29.7,1.8,36.6-3.3L403.8,177.1L403.8,177.1z M367.6,268.4
	h-53.3c-3.4,0-6.1,2.7-6.1,6.1c0,3.4,2.7,6.1,6.1,6.1h53.3c3.4,0,6.1-2.7,6.1-6.1C373.7,271.1,371,268.4,367.6,268.4z M229.8,242.8
	h-53.3c-3.4,0-6.1,2.7-6.1,6.1s2.7,6.1,6.1,6.1h53.3c3.4,0,6.1-2.7,6.1-6.1S233.2,242.8,229.8,242.8z M355,294h-28
	c-3.4,0-6.1,2.7-6.1,6.1c0,3.4,2.7,6.1,6.1,6.1h28c3.4,0,6.1-2.7,6.1-6.1C361.1,296.7,358.3,294,355,294z"/>
<path class="st0" d="M272.1,547.4c-72.9,0-141.4-28.4-193-79.9c-51.5-51.5-79.9-120.1-79.9-193c0-72.9,28.4-141.4,79.9-193
	s120.1-79.9,193-79.9s141.4,28.4,193,79.9c51.5,51.5,79.9,120.1,79.9,193c0,72.9-28.4,141.4-79.9,193
	C413.5,519,345,547.4,272.1,547.4z M272.1,11.4c-70.3,0-136.3,27.4-186,77c-49.7,49.7-77,115.7-77,186c0,70.3,27.4,136.3,77,186
	c49.7,49.7,115.7,77,186,77c70.3,0,136.3-27.4,186-77c49.7-49.7,77-115.7,77-186c0-70.3-27.4-136.3-77-186
	C408.4,38.8,342.4,11.4,272.1,11.4z"/>
</svg>
