<?xml version="1.0" encoding="utf-8"?>
<!-- Generator: Adobe Illustrator 27.0.0, SVG Export Plug-In . SVG Version: 6.00 Build 0)  -->
<svg version="1.1" id="Layer_1" xmlns="http://www.w3.org/2000/svg" xmlns:xlink="http://www.w3.org/1999/xlink" x="0px" y="0px"
	 viewBox="0 0 544.2 544.2" style="enable-background:new 0 0 544.2 544.2;" xml:space="preserve">
<style type="text/css">
	.st0{fill:#4A00EB;}
	.st1{fill:#FFFFFF;}
</style>
<circle class="st0" cx="272.1" cy="271.8" r="248.5"/>
<path id="XMLID_103_" class="st1" d="M235.9,272.9c0,3.4-2.7,6.1-6.1,6.1h-53.3c-3.4,0-6.1-2.7-6.1-6.1c0-3.4,2.7-6.1,6.1-6.1h53.3
	C233.2,266.8,235.9,269.5,235.9,272.9z M217.2,292.4h-28c-3.4,0-6.1,2.7-6.1,6.1c0,3.4,2.7,6.1,6.1,6.1h28c3.4,0,6.1-2.7,6.1-6.1
	C223.3,295.1,220.5,292.4,217.2,292.4z M414,372.2c2.5,2.3,2.6,6.1,0.3,8.6c-10.2,11-26.8,10-47.9,8.7c-25.7-1.6-57.6-3.5-91.5,14.8
	c-1.8,1-4,1-5.8,0c-13.9-7.5-27.5-11.6-40.4-13.7v27.9c0,2.2-1.1,4.2-3,5.3c-1.9,1.1-4.2,1.1-6,0.1l-16.5-9.2l-16.5,9.2
	c-0.9,0.5-1.9,0.8-3,0.8c-1.1,0-2.1-0.3-3.1-0.8c-1.9-1.1-3-3.1-3-5.3v-29c-21,1.3-37.6,2.3-47.8-8.7c-2.3-2.5-2.1-6.3,0.3-8.6
	c2.5-2.3,6.3-2.1,8.6,0.3c6.2,6.7,20.3,5.9,38.2,4.8c25.1-1.5,59.3-3.6,95.1,14.7c35.9-18.4,70-16.3,95.1-14.7
	c17.9,1.1,32,2,38.2-4.8C407.7,370.1,411.6,369.9,414,372.2z M216.6,389.1c-9.4-0.7-18.4-0.6-26.8-0.3v19.3l10.5-5.8
	c1.8-1,4.1-1,5.9,0l10.5,5.8L216.6,389.1L216.6,389.1z M308.2,247.3c0,3.4,2.7,6.1,6.1,6.1h53.3c3.4,0,6.1-2.7,6.1-6.1
	s-2.7-6.1-6.1-6.1h-53.3C311,241.2,308.2,244,308.2,247.3z M416,165.7v185.2c0,1.5-0.6,3-1.6,4.1c-10.2,11-26.8,10-47.9,8.7
	c-25.7-1.6-57.6-3.5-91.5,14.8c-0.1,0-0.1,0.1-0.2,0.1c-0.9,0.4-1.8,0.6-2.7,0.6c-0.4,0-1.7-0.1-3-0.8c-34-18-65.7-16.3-91.4-14.8
	c-21.1,1.3-37.7,2.3-47.9-8.7c-1-1.1-1.6-2.6-1.6-4.1V165.7c0-2.1,1.1-4.1,3-5.2c1.8-1.1,4.1-1.1,6-0.1
	c33.9,18.3,65.8,16.4,91.5,14.8c18.2-1.1,33.1-2,43.4,4.9c10.3-6.9,25.2-6,43.4-4.9c25.7,1.6,57.6,3.5,91.5-14.8c1.9-1,4.2-1,6,0.1
	C414.8,161.6,416,163.6,416,165.7z M266,190.7c-6.9-5.2-20.1-4.3-36.6-3.3c-23.7,1.4-55.4,3.4-89-11.8v172.7
	c6.9,5.1,20.1,4.3,36.6,3.3c7.5-0.5,15.8-1,24.7-1c19.3,0,41.4,2.4,64.4,12.8V190.7z M403.8,175.5c-33.6,15.2-65.3,13.2-89,11.8
	c-16.4-1-29.7-1.8-36.6,3.3v172.7c33.6-15.2,65.4-13.2,89-11.8c16.4,1,29.7,1.8,36.6-3.3L403.8,175.5L403.8,175.5z M367.6,266.8
	h-53.3c-3.4,0-6.1,2.7-6.1,6.1c0,3.4,2.7,6.1,6.1,6.1h53.3c3.4,0,6.1-2.7,6.1-6.1C373.7,269.5,371,266.8,367.6,266.8z M229.8,241.2
	h-53.3c-3.4,0-6.1,2.7-6.1,6.1s2.7,6.1,6.1,6.1h53.3c3.4,0,6.1-2.7,6.1-6.1S233.2,241.2,229.8,241.2z M355,292.4h-28
	c-3.4,0-6.1,2.7-6.1,6.1c0,3.4,2.7,6.1,6.1,6.1h28c3.4,0,6.1-2.7,6.1-6.1C361.1,295.1,358.3,292.4,355,292.4z"/>
<path class="st0" d="M272.1,545.8c-72.9,0-141.4-28.4-193-79.9c-51.5-51.5-79.9-120.1-79.9-193c0-72.9,28.4-141.4,79.9-193
	S199.2,0,272.1,0s141.4,28.4,193,79.9c51.5,51.5,79.9,120.1,79.9,193c0,72.9-28.4,141.4-79.9,193C413.5,517.4,345,545.8,272.1,545.8
	z M272.1,9.8c-70.3,0-136.3,27.4-186,77c-49.7,49.7-77,115.7-77,186c0,70.3,27.4,136.3,77,186c49.7,49.7,115.7,77,186,77
	c70.3,0,136.3-27.4,186-77c49.7-49.7,77-115.7,77-186c0-70.3-27.4-136.3-77-186C408.4,37.2,342.4,9.8,272.1,9.8z"/>
</svg>
