<?xml version="1.0" encoding="utf-8"?>
<!-- Generator: Adobe Illustrator 26.0.3, SVG Export Plug-In . SVG Version: 6.00 Build 0)  -->
<svg version="1.1" id="Layer_1" xmlns="http://www.w3.org/2000/svg" xmlns:xlink="http://www.w3.org/1999/xlink" x="0px" y="0px"
	 width="544.2px" height="544.2px" viewBox="0 0 544.2 544.2" style="enable-background:new 0 0 544.2 544.2;" xml:space="preserve"
	>
<style type="text/css">
.st0{fill:#345BFB;}
	.st1{fill:#FFFFFF;}
</style>
<circle class="st0" cx="272.1" cy="271.8" r="272.1"/>
<g>
<path class="st1" d="M338.1,250.9c-9.6-10.1-21.5-17.8-34.6-22.6l47.5-47.5l-9.1-10.7c-17.4-20.5-42.9-32.3-69.8-32.3
		c-50.4,0-91.5,41-91.5,91.5v173.5h30.5v-20.3c16.7,15.1,38.4,23.4,60.9,23.3c1.2,0,2.4,0,3.6-0.1c47.5-1.8,86-40.4,87.9-87.9
		C364.5,292.8,355.5,269,338.1,250.9z M211.2,229.3c0-33.6,27.4-61,61-61c13.1,0,25.8,4.2,36.3,12l-97.3,97.3L211.2,229.3z
		 M333.1,316.7c-1.2,31.6-26.9,57.3-58.5,58.5c-32.2,1.3-59.9-22.8-63.1-54.9l66.7-66.7C310.3,256.9,334.3,284.5,333.1,316.7
		L333.1,316.7z"/>
	</g>
</svg>
