<?xml version="1.0" encoding="UTF-8"?><svg id="Layer_1" xmlns="http://www.w3.org/2000/svg" viewBox="0 0 600 600"><defs><style>.cls-1{stroke-linecap:square;}.cls-1,.cls-2,.cls-3{fill:#fff;}.cls-1,.cls-2,.cls-3,.cls-4,.cls-5{stroke-linejoin:round;stroke-width:16px;}.cls-1,.cls-3,.cls-4{stroke:#090909;}.cls-6{fill:#ffabd0;}.cls-2{stroke:#fff;}.cls-4{fill:#090909;}.cls-5{stroke:#000;}</style></defs><rect class="cls-6" width="600" height="600" rx="50" ry="50"/><polygon class="cls-5" points="428.35 491.38 168.77 491.38 193.64 207.1 253.3 149.66 458.25 149.66 428.35 491.38"/><polygon class="cls-3" points="396.61 460.08 140.9 460.08 165.16 182.8 245.84 108.62 427.36 108.62 396.61 460.08"/><polygon class="cls-4" points="367.19 261.09 200.93 261.09 210.38 153.11 376.64 153.11 367.19 261.09"/><line class="cls-1" x1="192.41" y1="358.43" x2="358.67" y2="358.43"/><line class="cls-1" x1="188.73" y1="400.52" x2="273.96" y2="400.52"/><line class="cls-1" x1="196.1" y1="316.34" x2="362.36" y2="316.34"/><polyline class="cls-2" points="261.46 125.95 254.97 200.13 180.78 200.13"/><polyline class="cls-4" points="245.84 108.62 239.35 182.8 165.16 182.8"/></svg>